<mxfile host="Electron" modified="2024-05-02T05:20:46.663Z" agent="Mozilla/5.0 (X11; Linux x86_64) AppleWebKit/537.36 (KHTML, like Gecko) draw.io/21.6.1 Chrome/112.0.5615.204 Electron/24.6.1 Safari/537.36" etag="bkgWp_gIJWIpwgYjFmrG" version="21.6.1" type="device">
  <diagram name="Page-1" id="0cv2G-S0-AO7ha8Dd1sW">
    <mxGraphModel dx="819" dy="477" grid="1" gridSize="10" guides="1" tooltips="1" connect="1" arrows="1" fold="1" page="1" pageScale="1" pageWidth="827" pageHeight="1169" math="0" shadow="0">
      <root>
        <mxCell id="0" />
        <mxCell id="1" parent="0" />
        <mxCell id="bZVg_SzG3yCjxyngXD-l-10" style="edgeStyle=orthogonalEdgeStyle;rounded=0;orthogonalLoop=1;jettySize=auto;html=1;exitX=0.5;exitY=1;exitDx=0;exitDy=0;entryX=0.5;entryY=0;entryDx=0;entryDy=0;fontFamily=Times New Roman;fontSize=12;fontColor=default;startArrow=open;startFill=0;" edge="1" parent="1" source="bZVg_SzG3yCjxyngXD-l-2" target="bZVg_SzG3yCjxyngXD-l-4">
          <mxGeometry relative="1" as="geometry" />
        </mxCell>
        <mxCell id="bZVg_SzG3yCjxyngXD-l-2" value="Controller" style="rounded=0;whiteSpace=wrap;html=1;strokeColor=default;fontFamily=Times New Roman;fontSize=12;fontColor=default;fillColor=default;" vertex="1" parent="1">
          <mxGeometry x="360" y="320" width="80" height="40" as="geometry" />
        </mxCell>
        <mxCell id="bZVg_SzG3yCjxyngXD-l-4" value="Device" style="rounded=0;whiteSpace=wrap;html=1;strokeColor=default;fontFamily=Times New Roman;fontSize=12;fontColor=default;fillColor=default;" vertex="1" parent="1">
          <mxGeometry x="210" y="440" width="60" height="40" as="geometry" />
        </mxCell>
        <mxCell id="bZVg_SzG3yCjxyngXD-l-5" value="Device" style="rounded=0;whiteSpace=wrap;html=1;strokeColor=default;fontFamily=Times New Roman;fontSize=12;fontColor=default;fillColor=default;" vertex="1" parent="1">
          <mxGeometry x="290" y="440" width="60" height="40" as="geometry" />
        </mxCell>
        <mxCell id="bZVg_SzG3yCjxyngXD-l-6" value="Device" style="rounded=0;whiteSpace=wrap;html=1;strokeColor=default;fontFamily=Times New Roman;fontSize=12;fontColor=default;fillColor=default;" vertex="1" parent="1">
          <mxGeometry x="370" y="440" width="60" height="40" as="geometry" />
        </mxCell>
        <mxCell id="bZVg_SzG3yCjxyngXD-l-7" value="Device" style="rounded=0;whiteSpace=wrap;html=1;strokeColor=default;fontFamily=Times New Roman;fontSize=12;fontColor=default;fillColor=default;" vertex="1" parent="1">
          <mxGeometry x="450" y="440" width="60" height="40" as="geometry" />
        </mxCell>
        <mxCell id="bZVg_SzG3yCjxyngXD-l-8" value="Device" style="rounded=0;whiteSpace=wrap;html=1;strokeColor=default;fontFamily=Times New Roman;fontSize=12;fontColor=default;fillColor=default;" vertex="1" parent="1">
          <mxGeometry x="530" y="440" width="60" height="40" as="geometry" />
        </mxCell>
        <mxCell id="bZVg_SzG3yCjxyngXD-l-13" value="" style="endArrow=classic;html=1;rounded=0;fontFamily=Times New Roman;fontSize=12;fontColor=default;entryX=0.5;entryY=0;entryDx=0;entryDy=0;" edge="1" parent="1" target="bZVg_SzG3yCjxyngXD-l-5">
          <mxGeometry width="50" height="50" relative="1" as="geometry">
            <mxPoint x="320" y="400" as="sourcePoint" />
            <mxPoint x="410" y="420" as="targetPoint" />
          </mxGeometry>
        </mxCell>
        <mxCell id="bZVg_SzG3yCjxyngXD-l-14" value="" style="endArrow=classic;html=1;rounded=0;fontFamily=Times New Roman;fontSize=12;fontColor=default;entryX=0.5;entryY=0;entryDx=0;entryDy=0;" edge="1" parent="1">
          <mxGeometry width="50" height="50" relative="1" as="geometry">
            <mxPoint x="399.76" y="400" as="sourcePoint" />
            <mxPoint x="399.76" y="440" as="targetPoint" />
          </mxGeometry>
        </mxCell>
        <mxCell id="bZVg_SzG3yCjxyngXD-l-15" value="" style="endArrow=classic;html=1;rounded=0;fontFamily=Times New Roman;fontSize=12;fontColor=default;entryX=0.5;entryY=0;entryDx=0;entryDy=0;" edge="1" parent="1">
          <mxGeometry width="50" height="50" relative="1" as="geometry">
            <mxPoint x="479.76" y="400" as="sourcePoint" />
            <mxPoint x="479.76" y="440" as="targetPoint" />
          </mxGeometry>
        </mxCell>
        <mxCell id="bZVg_SzG3yCjxyngXD-l-16" value="" style="endArrow=classic;html=1;rounded=0;fontFamily=Times New Roman;fontSize=12;fontColor=default;entryX=0.5;entryY=0;entryDx=0;entryDy=0;" edge="1" parent="1">
          <mxGeometry width="50" height="50" relative="1" as="geometry">
            <mxPoint x="400" y="400" as="sourcePoint" />
            <mxPoint x="559.76" y="440" as="targetPoint" />
            <Array as="points">
              <mxPoint x="560" y="400" />
            </Array>
          </mxGeometry>
        </mxCell>
        <mxCell id="bZVg_SzG3yCjxyngXD-l-17" value="" style="endArrow=classic;html=1;rounded=0;fontFamily=Times New Roman;fontSize=12;fontColor=default;" edge="1" parent="1">
          <mxGeometry width="50" height="50" relative="1" as="geometry">
            <mxPoint x="640" y="320" as="sourcePoint" />
            <mxPoint x="640" y="480" as="targetPoint" />
          </mxGeometry>
        </mxCell>
        <mxCell id="bZVg_SzG3yCjxyngXD-l-18" value="" style="endArrow=none;html=1;rounded=0;fontFamily=Times New Roman;fontSize=12;fontColor=default;startArrow=open;startFill=0;endFill=0;" edge="1" parent="1">
          <mxGeometry width="50" height="50" relative="1" as="geometry">
            <mxPoint x="680" y="320" as="sourcePoint" />
            <mxPoint x="680" y="480" as="targetPoint" />
          </mxGeometry>
        </mxCell>
        <mxCell id="bZVg_SzG3yCjxyngXD-l-19" value="Instructions" style="text;html=1;align=center;verticalAlign=middle;resizable=0;points=[];autosize=1;strokeColor=none;fillColor=none;fontSize=12;fontFamily=Times New Roman;fontColor=default;" vertex="1" parent="1">
          <mxGeometry x="600" y="290" width="80" height="30" as="geometry" />
        </mxCell>
        <mxCell id="bZVg_SzG3yCjxyngXD-l-20" value="Statuses" style="text;html=1;align=center;verticalAlign=middle;resizable=0;points=[];autosize=1;strokeColor=none;fillColor=none;fontSize=12;fontFamily=Times New Roman;fontColor=default;" vertex="1" parent="1">
          <mxGeometry x="650" y="480" width="60" height="30" as="geometry" />
        </mxCell>
      </root>
    </mxGraphModel>
  </diagram>
</mxfile>
